<?xml version="1.0" encoding="utf-8"?>
<!-- Generator: Adobe Illustrator 22.0.1, SVG Export Plug-In . SVG Version: 6.00 Build 0)  -->
<svg version="1.1"
	 id="svg20858" xmlns:cc="http://creativecommons.org/ns#" xmlns:dc="http://purl.org/dc/elements/1.1/" xmlns:rdf="http://www.w3.org/1999/02/22-rdf-syntax-ns#" xmlns:svg="http://www.w3.org/2000/svg"
	 xmlns="http://www.w3.org/2000/svg" xmlns:xlink="http://www.w3.org/1999/xlink" x="0px" y="0px" viewBox="0 0 1024 768"
	 style="enable-background:new 0 0 1024 768;" xml:space="preserve">
<style type="text/css">
	.st0{fill:#FFCA04;}
</style>
<g id="logo-group">
	
		<image style="display:none;overflow:visible;enable-background:new    ;" width="200" height="200" id="icon" xlink:href="29E49456D5A6885B.png"  transform="matrix(0.3762 0 0 0.3762 323.4971 348.5753)">
	</image>
	<g id="title">
		<path id="path20866" class="st0" d="M303.8,333.1c-8.4,0-18.8,0.9-31.3,2.8l-1.4,4.9l10.7,1.9l-10,63.7l-11.4,3l-1.4,4.8h38.4
			l1.7-5.4l-14.8-2.5l10.5-67.7c0.5,0,1.5-0.1,3-0.2c1.6-0.1,2.9-0.1,4-0.1c5.7,0,10,1.6,12.9,4.7c2.9,3.1,4.3,7.3,4.3,12.5
			c0,7-1.9,12.2-5.8,15.8c-3.9,3.5-9.9,5.3-17.9,5.3h-3.4l0.5,5.3c3.1,0.4,5.6,0.6,7.4,0.6c5.9,0,11.3-1.1,16.4-3.4
			c5.1-2.3,9.2-5.6,12.2-9.8c3.1-4.3,4.6-9.3,4.6-15c0-5-1.3-9.1-3.9-12.2c-2.6-3.2-6.1-5.5-10.5-6.9
			C314,333.8,309.2,333.1,303.8,333.1z"/>
		<path id="path20868" class="st0" d="M385,380.9c0-4.3-0.7-8.3-2-12c-1.3-3.7-3.4-6.7-6.1-9c-2.8-2.3-6.1-3.5-10.2-3.5
			c-5.5,0-10.5,1.7-15,5s-8,7.7-10.5,13.1c-2.5,5.4-3.8,11.1-3.8,17.2c0,4.6,0.7,8.7,2.1,12.4c1.4,3.6,3.5,6.5,6.3,8.6
			c2.8,2.1,6.3,3.2,10.2,3.2c5.5,0,10.5-1.7,14.9-5c4.4-3.4,7.9-7.7,10.3-13.1C383.7,392.4,385,386.7,385,380.9z M360.1,408.2
			c-2.3,0-4.4-0.7-6.2-2.1c-1.8-1.5-3.3-3.6-4.3-6.5c-1-2.9-1.6-6.4-1.6-10.4c0-5.3,0.6-9.8,1.7-13.6c1.2-3.8,2.8-6.6,4.8-8.5
			c2-1.9,4.4-2.9,7.1-2.9c4.4,0,7.6,1.9,9.6,5.6c2.1,3.7,3.1,8.4,3.1,14c0,7.6-1.2,13.6-3.7,18C368.1,406,364.6,408.2,360.1,408.2z"
			/>
		<path id="path20870" class="st0" d="M396.4,336.3c1.9,0,3.4,0.3,4.4,0.8c1,0.5,1.5,1.6,1.5,3.2c0,0.3,0,0.8-0.1,1.5l-9.3,59.9
			c-0.3,2.2-0.5,3.9-0.5,5c0,3,0.7,5.2,2.1,6.5c1.5,1.4,3.9,2.1,7.2,2.1c1.7,0,3.3-0.2,5-0.6c1.7-0.4,3.1-0.9,4.1-1.4l0.5-5.2
			c-1.9,0-3.3,0-4.5-0.1c-1.1-0.2-2-0.6-2.7-1.4c-0.7-0.7-1-1.9-1-3.4c0-2.6,0.5-7,1.5-13.3l7.6-48.3c0.3-1.8,0.4-3.4,0.4-4.8
			c0-2.6-0.6-4.6-1.9-5.8c-1.3-1.3-3.5-1.9-6.7-1.9c-3.7,0-7,0.7-9.9,2.1l-0.6,5.2L396.4,336.3z"/>
		<path id="path20872" class="st0" d="M418.3,439c-3.1,0-5.6-0.7-7.6-2.1c-2-1.4-3-3.4-3-6c0-1.2,0.3-2.4,0.8-3.6s1.3-2.3,2.3-3.3
			c1.9,1.3,3.6,2.2,5.2,2.8c1.6,0.6,3.4,0.8,5.2,0.8c3.6,0,6.7-1.1,9.3-3.2c2.5-2.2,4.8-5.5,6.7-10.1l-10.3-45.1
			c-0.3-1.6-0.8-2.8-1.4-3.6c-0.5-0.8-1.1-1.3-1.9-1.6c-0.7-0.3-1.6-0.4-2.8-0.4l-2.6,0.1l0.6-5.2c2.8-1.4,5.8-2.1,9.3-2.1
			c2.4,0,4.2,0.5,5.4,1.6c1.2,1,2,2.4,2.5,4.1c0.5,1.7,1,4.5,1.7,8.3l5.9,34.5c2.6-4.7,5.2-10.6,7.8-17.7c2.6-7.2,3.9-14.3,3.9-21.3
			c0-0.9-0.4-1.7-1.2-2.1c-0.8-0.5-1.8-0.7-3.1-0.7c-1.1,0-2.1,0.1-3,0.3l0.6-5.2c2.6-1.4,5.5-2.1,8.6-2.1c2.7,0,4.6,0.7,5.8,2
			c1.2,1.3,1.8,3.2,1.8,5.8c0,2.7-1.1,7.1-3.3,13.1c-2.2,6-5,12.4-8.3,19.3c-3.3,6.9-6.4,12.9-9.4,18c-3.1,5.4-5.7,9.7-8,13
			c-2.2,3.3-4.8,6-7.7,8.2C424.9,437.8,421.7,439,418.3,439z"/>
		<path id="path20874" class="st0" d="M545.7,402.9c0,1.6,0.3,2.7,1,3.4c0.7,0.7,1.6,1.2,2.7,1.4c1.1,0.1,2.6,0.2,4.5,0.1l-0.5,5.2
			c-1.1,0.6-2.5,1-4.1,1.4c-1.6,0.4-3.3,0.6-5,0.6c-3.4,0-5.8-0.7-7.2-2.1c-1.4-1.4-2.1-3.7-2.1-6.7c0-1.4,0.1-3,0.4-4.9l2.7-21.2
			c0.3-2.5,0.5-4.4,0.5-5.8c0-2.8-0.5-4.9-1.5-6.3c-0.9-1.4-2.5-2.1-4.8-2.1c-2.9,0-5.5,0.6-7.6,1.8c-2.1,1.2-4.1,2.8-5.9,4.7
			l-0.2,2l-4.5,39.7h-10.5l4.3-34c0.3-2.1,0.4-3.9,0.4-5.6c0-2.9-0.5-5-1.6-6.5c-1-1.4-2.7-2.1-5.2-2.1c-2.7,0-4.9,0.5-6.8,1.5
			c-1.9,1-3.6,2.3-5.3,3.9l-6.1,42.8h-10.5l6-45.1c0.1-0.7,0.1-1.2,0.1-1.4c0-1.6-0.5-2.7-1.5-3.2c-1-0.6-2.4-0.8-4.3-0.8l-2.8,0.1
			l0.6-5.2c2.9-1.4,6.2-2.1,9.9-2.1c3.1,0,5.3,0.6,6.9,1.7c1.5,1.2,2.3,3,2.3,5.4c0,1-0.2,2.4-0.5,3.9h0.8c2.2-2.9,4.9-5.5,8.2-7.7
			c3.3-2.2,6.7-3.4,10.2-3.4c3.7,0,6.3,1,8,3c1.7,2,2.6,5.2,2.6,9.6c2.6-3.4,5.6-6.4,9.2-8.9s7.2-3.8,11.1-3.8c3.4,0,6,1,7.6,3
			c1.6,2,2.5,5.2,2.5,9.6c0,2-0.1,3.8-0.3,5.5l-1.7,15.2l-0.7,5.6C546,399.1,545.7,401.6,545.7,402.9z"/>
		<path id="path20876" class="st0" d="M605.9,380.9c0-4.3-0.7-8.3-2-12c-1.3-3.7-3.4-6.7-6.1-9c-2.8-2.3-6.1-3.5-10.2-3.5
			c-5.5,0-10.5,1.7-15,5s-8,7.7-10.5,13.1c-2.5,5.4-3.8,11.1-3.8,17.2c0,4.6,0.7,8.7,2.1,12.4c1.4,3.6,3.5,6.5,6.3,8.6
			c2.8,2.1,6.3,3.2,10.2,3.2c5.5,0,10.5-1.7,14.9-5c4.4-3.4,7.9-7.7,10.3-13.1C604.7,392.4,605.9,386.7,605.9,380.9z M581,408.2
			c-2.3,0-4.4-0.7-6.2-2.1c-1.8-1.5-3.3-3.6-4.3-6.5c-1-2.9-1.6-6.4-1.6-10.4c0-5.3,0.6-9.8,1.7-13.6c1.2-3.8,2.8-6.6,4.8-8.5
			c2-1.9,4.4-2.9,7.1-2.9c4.4,0,7.6,1.9,9.6,5.6c2.1,3.7,3.1,8.4,3.1,14c0,7.6-1.2,13.6-3.7,18C589,406,585.5,408.2,581,408.2z"/>
		<path id="path20878" class="st0" d="M631.5,381.4c1.5-3.1,3.4-5.9,5.6-8.5c2.2-2.6,4.6-3.9,7.2-3.9c1.2,0,2.2,0.2,3,0.5
			c0.9,0.3,1.7,0.9,2.6,1.7c1.2-1.2,2.1-2.6,2.7-4.1c0.6-1.5,0.9-3,0.9-4.5c0-1.8-0.6-3.2-1.7-4.4c-1.1-1.2-2.6-1.7-4.5-1.7
			c-2.1,0-4.1,0.9-6,2.7c-1.9,1.8-3.7,4.1-5.2,7c-1.6,2.8-2.8,5.7-3.8,8.7h-0.7l1.5-7.4c0.3-1.7,0.5-3,0.5-3.8
			c0-2.5-0.7-4.3-2.2-5.5c-1.5-1.2-3.8-1.8-6.9-1.8c-3.7,0-7,0.7-9.9,2.1l-0.6,5.2l2.7-0.1c1.9,0,3.3,0.3,4.3,0.8
			c1,0.6,1.5,1.7,1.5,3.4c0,0.6,0,1-0.1,1.3l-6,45.1h10.8L631.5,381.4z"/>
		<path id="path20880" class="st0" d="M673.7,372.1c2.3-2.3,4.3-3.9,5.9-4.8c1.6-0.9,3.7-1.4,6.1-1.4c1.7,0,3.3,0.7,4.8,2
			c1.5,1.3,2.7,3.3,3.6,5.9c0.9,2.5,1.4,5.5,1.4,8.9c0,5.8-0.9,10.7-2.7,14.6c-1.8,3.8-3.9,6.7-6.5,8.5c-2.5,1.8-4.9,2.7-7.2,2.7
			c-2.2,0-3.9-0.1-4.9-0.4c-1-0.3-2.2-0.7-3.4-1.2l-1.5,7.9c1.2,0.4,3,0.6,5.6,0.6c5.1,0,10.1-1.7,14.9-5c4.9-3.4,8.8-7.9,11.9-13.5
			s4.6-11.4,4.6-17.7c0-4.7-0.7-8.7-2.1-12c-1.3-3.4-3.2-6-5.6-7.8c-2.3-1.8-5-2.7-7.9-2.7c-2.2,0-4.5,0.5-6.7,1.6
			c-2.2,1.1-4.2,2.5-5.9,4.2c-1.7,1.7-3.1,3.4-4.1,5.2l-0.8-0.1c0.3-1.7,0.5-2.9,0.5-3.8c0-2-0.6-3.5-1.9-4.5
			c-1.3-1-3.4-1.5-6.5-1.5c-3.7,0-7,0.7-9.9,2.1l-0.6,5.2l2.7-0.1c1.9,0,3.3,0.3,4.3,0.8c1,0.6,1.6,1.7,1.6,3.3c0,0.2,0,0.7-0.1,1.4
			l-9.9,67.3h10.3L673.7,372.1z"/>
		<path id="path20882" class="st0" d="M730.6,371.4c1.7-1.6,3.5-2.9,5.4-3.9c1.9-1,4.2-1.5,7-1.5c5,0,7.4,2.7,7.4,8.2
			c0,1.7-0.2,3.7-0.7,6l-3.3,21.4c-0.3,2.1-0.5,3.8-0.5,5.2c0,2.9,0.7,5.1,2.2,6.5c1.5,1.3,3.9,2,7.2,2c1.7,0,3.3-0.2,5-0.6
			c1.7-0.4,3.1-0.9,4.1-1.4l0.5-5.2c-1.9,0-3.3,0-4.5-0.1c-1.1-0.2-2-0.6-2.7-1.4c-0.7-0.7-1-1.9-1-3.4c0-2.6,0.5-7,1.5-13.3
			l2.3-15.2c0.4-2.3,0.6-4.4,0.6-6.2c0-4.1-0.9-7.1-2.8-9c-1.9-1.9-4.6-2.9-8.3-2.9c-3.6,0-7,1.1-10.3,3.4c-3.3,2.2-6.1,4.8-8.3,7.7
			h-0.8l1.8-8l2.8-18c0.3-2.1,0.5-3.7,0.5-4.9c0-2.6-0.6-4.5-1.9-5.8c-1.3-1.3-3.5-1.9-6.7-1.9c-3.7,0-7,0.7-9.9,2.1l-0.6,5.2
			l2.7-0.1c1.9,0,3.3,0.3,4.3,0.8c1,0.6,1.6,1.7,1.6,3.3c0,0.2,0,0.7-0.1,1.4l-10.9,72.4h10.5L730.6,371.4z"/>
	</g>
</g>
</svg>
